# xmcd CD database file
#
# Track frame offsets:
#	150
#	28010
#	59155
#	86662
#	103814
#	136929
#
# Disc length: 2197 seconds
#
# Revision: 0
# Processed by: cddbd v1.4PL0 Copyright (c) Steve Scherf et al.
# Submitted via: CDex 1.51
#
DISCID=52089306
DTITLE=don menza - morning song
DYEAR=1965
DGENRE=Jazz
TTITLE0=cinderella's waltz
TTITLE1=morning song
TTITLE2=oliver's twist
TTITLE3=when johnny comes marchin' home
TTITLE4=new spanish boots
TTITLE5=devil's disciples
EXTD=YEAR: 1965
EXTT0=
EXTT1=
EXTT2=
EXTT3=
EXTT4=
EXTT5=
PLAYORDER=
